<?xml version="1.0" encoding="utf-8"?>
<!-- Generator: Adobe Illustrator 19.0.0, SVG Export Plug-In . SVG Version: 6.00 Build 0)  -->
<svg version="1.1" id="Layer_1" xmlns="http://www.w3.org/2000/svg" xmlns:xlink="http://www.w3.org/1999/xlink" x="0px" y="0px"
	 viewBox="0 0 1400 980" style="enable-background:new 0 0 1400 980;" xml:space="preserve">
<style type="text/css">
	.st0{fill:#FFFFFF;}
	.st1{opacity:0.56;fill:url(#SVGID_1_);}
	.st2{opacity:0.16;fill:#FFFFFF;}
	.st3{opacity:0.56;fill:url(#SVGID_2_);}
	.st4{opacity:0.54;fill:#FFFFFF;}
	.st5{opacity:0.56;fill:url(#SVGID_3_);}
	.st6{opacity:0.44;fill:#FFFFFF;}
	.st7{fill:#C0EAB0;}
	.st8{fill:#96E27D;}
	.st9{fill:#90D676;}
	.st10{opacity:0.56;fill:url(#SVGID_4_);}
	.st11{opacity:0.28;fill:url(#SVGID_5_);}
	.st12{opacity:0.28;fill:url(#SVGID_6_);}
	.st13{opacity:0.28;fill:url(#SVGID_7_);}
	.st14{fill:#8FBF79;}
	.st15{fill:#8CCC71;}
	.st16{fill:#80AD6D;}
	.st17{fill:#83B26D;}
	.st18{fill:#91BC7D;}
	.st19{opacity:0.56;fill:url(#SVGID_8_);}
	.st20{opacity:0.56;fill:url(#SVGID_9_);}
</style>
<rect x="-47.5" y="-29.5" class="st0" width="1484" height="1036"/>
<linearGradient id="SVGID_1_" gradientUnits="userSpaceOnUse" x1="703.5" y1="952.4996" x2="703.5" y2="82.4991">
	<stop  offset="0" style="stop-color:#FFFFFF"/>
	<stop  offset="1" style="stop-color:#7DBCE2"/>
</linearGradient>
<rect x="-5.5" y="2.5" class="st1" width="1418" height="994"/>
<path class="st2" d="M1421.1,434.1c0,0-37.5-61.5-87.6-17.5c-23.8,20.9-5.2,55.6-5.2,55.6s-19.5-7.2-36.2,14.6
	c-15.5,20.3-8.4,39.9-8.4,39.9s-36.5-32.5-78,3.9c-41.5,36.3-8.8,77.7-8.8,77.7s-17.6-6.1-27.4,4.7c-12.5,13.8-4.6,28.3-4.6,28.3
	s-20.3-3-31.5,8.6c-23.7,24.6-127,204.8-145.8,211.6c49.9-8.6,403.5,6,403.5,6L1421.1,434.1z"/>
<path class="st2" d="M-54.4,434.1c0,0,37.5-61.5,87.6-17.5c23.8,20.9,5.2,55.6,5.2,55.6s19.5-7.2,36.2,14.6
	c15.5,20.3,8.4,39.9,8.4,39.9s36.5-32.5,78,3.9c41.5,36.3,8.8,77.7,8.8,77.7s17.6-6.1,27.4,4.7c12.5,13.8,4.6,28.3,4.6,28.3
	s20.3-3,31.5,8.6c23.7,24.6,127,204.8,145.8,211.6c-49.9-8.6-403.5,6-403.5,6L-54.4,434.1z"/>
<linearGradient id="SVGID_2_" gradientUnits="userSpaceOnUse" x1="982.5" y1="821.4312" x2="982.5" y2="359.7534">
	<stop  offset="0" style="stop-color:#FFFFFF"/>
	<stop  offset="1" style="stop-color:#7DBCE2"/>
</linearGradient>
<path class="st3" d="M550.5,918.5c0,0,266.6-372.9,450.6-404.9s413.4,424.9,413.4,424.9L550.5,918.5z"/>
<path class="st4" d="M1426.9,482.9c0,0-25-41.7-73.9-10.7c-24.3,15.4-13.1,52.4-13.1,52.4s-31-14.3-73.9,16.7
	c-42.8,30.9-26.2,101.3-26.2,101.3s-10.7-9.5-23.8-1.2c-13.1,8.3-10.7,25-10.7,25s-25.1-49-78.7-35.9c-53.6,13.1-50,68.1-50,68.1
	s-21.5-26.2-69.1-7.2c-40.6,16.2-46.5,65.5-46.5,65.5s-103.7-42.9-178.8,44.1c206.2-1.2,653.1,0,653.1,0L1426.9,482.9z"/>
<linearGradient id="SVGID_3_" gradientUnits="userSpaceOnUse" x1="479.9336" y1="867.9993" x2="479.9336" y2="329.9985">
	<stop  offset="0" style="stop-color:#FFFFFF"/>
	<stop  offset="1" style="stop-color:#7DBCE2"/>
</linearGradient>
<path class="st5" d="M-97.5,852c0,0,390-278,620-210c230,68,240,160,500,178S6.5,1154-97.5,852z"/>
<path class="st6" d="M-67.3,600.7c0,0,39.3-52,89.3-28.1c50,23.9,52.2,82.6,52.2,82.6s24.8-26.7,68.1-5.8
	C182.5,668.8,187,705,187,705s31.3-79.6,124.8-55.7c93.5,23.9,75.2,114.3,75.2,114.3s22.7-23.4,46.5-14.4
	c30.4,11.6,29.6,40.5,29.6,40.5s29.2-20.8,55.9-11.5c56.5,19.7,35.4,68,70.2,63.6c-84.8,26.1-693.3,67.4-693.3,67.4L-67.3,600.7z"/>
<path class="st7" d="M-73.2,734.7c0,0,174.3,157.5,372.3,152.4c198-5,579.4-206.6,1157.4-108.6
	c-16.9,139.2-935.6,256.3-1346.2,184.2C-143.2,786.6-73.2,734.7-73.2,734.7z"/>
<path class="st8" d="M-170.1,893.5c-7.2,0,65.2-109,256-115.7c190.8-6.7,347.8,137.5,741.4,137.5c393.6,0,649.6-266.6,649.6-266.6
	v568.5H-121.8L-170.1,893.5z"/>
<path class="st9" d="M-178.1,899.5c-7.2,0,65.2-109,256-115.7c190.8-6.7,347.8,137.5,741.4,137.5c393.6,0,649.6-266.6,649.6-266.6
	v568.5H-129.8L-178.1,899.5z"/>
<path class="st0" d="M193.5,134.5c-4.2,0-8.1,0.9-11.6,2.6c-6-10.5-17.4-17.6-30.4-17.6c-17.8,0-32.4,13.3-34.7,30.4
	c-3.8-3.1-8.7-4.9-13.9-4.9c-12.3,0-22.3,10-22.3,22.2c0,12.3,10,22.3,22.3,22.3c1.1,0,2.1-0.1,3.2-0.2h41.5
	c1.3,0.1,2.6,0.2,3.9,0.2s2.6-0.1,3.9-0.2h34.6c1.1,0.1,2.3,0.2,3.5,0.2c15.2,0,27.5-12.3,27.5-27.5S208.7,134.5,193.5,134.5z"/>
<path class="st0" d="M1295.6,360c-4.2,0-8.1,0.9-11.6,2.6c-6-10.5-17.4-17.6-30.4-17.6c-17.8,0-32.4,13.3-34.7,30.4
	c-3.8-3.1-8.7-4.9-13.9-4.9c-12.3,0-22.3,10-22.3,22.2c0,12.3,10,22.3,22.3,22.3c1.1,0,2.1-0.1,3.2-0.2h41.5
	c1.3,0.1,2.6,0.2,3.9,0.2s2.6-0.1,3.9-0.2h34.6c1.1,0.1,2.3,0.2,3.5,0.2c15.2,0,27.5-12.3,27.5-27.5S1310.8,360,1295.6,360z"/>
<linearGradient id="SVGID_4_" gradientUnits="userSpaceOnUse" x1="129.0277" y1="888.0247" x2="160.3607" y2="910.6917">
	<stop  offset="0" style="stop-color:#72B257"/>
	<stop  offset="1" style="stop-color:#90D676"/>
</linearGradient>
<polygon class="st10" points="109,891.9 156.1,922.8 181.6,907.8 133.6,882.3 "/>
<linearGradient id="SVGID_5_" gradientUnits="userSpaceOnUse" x1="189.683" y1="867.2285" x2="225.3712" y2="893.0461">
	<stop  offset="0" style="stop-color:#72B257"/>
	<stop  offset="1" style="stop-color:#90D676"/>
</linearGradient>
<polygon class="st11" points="169.2,868.5 222.1,907.4 247.6,892.4 199.6,866.9 "/>
<linearGradient id="SVGID_6_" gradientUnits="userSpaceOnUse" x1="143.683" y1="832.5625" x2="179.3712" y2="858.3801">
	<stop  offset="0" style="stop-color:#72B257"/>
	<stop  offset="1" style="stop-color:#90D676"/>
</linearGradient>
<polygon class="st12" points="123.2,833.8 176.1,872.8 201.6,857.8 153.6,832.3 "/>
<linearGradient id="SVGID_7_" gradientUnits="userSpaceOnUse" x1="100.1533" y1="806.6332" x2="127.8754" y2="826.688">
	<stop  offset="0" style="stop-color:#72B257"/>
	<stop  offset="1" style="stop-color:#90D676"/>
</linearGradient>
<polygon class="st13" points="87,803.7 124.3,838.1 145.6,825.6 103.2,801.8 "/>
<polygon class="st14" points="154.2,811.7 140.1,753.7 126,811.7 131.4,811.7 126,833.7 154.2,833.7 148.9,811.7 "/>
<polygon class="st15" points="106.2,788.8 96.6,749.2 87,788.8 90.7,788.8 87,803.7 106.2,803.7 102.6,788.8 "/>
<polygon class="st16" points="107.7,893.7 84.6,798.6 61.5,893.7 70.3,893.7 61.5,929.7 107.7,929.7 99,893.7 "/>
<polygon class="st17" points="145.2,863.2 126.6,786.6 108,863.2 115.1,863.2 108,892.2 145.2,892.2 138.2,863.2 "/>
<polygon class="st18" points="200.7,843.1 183.6,772.7 166.5,843.1 173,843.1 166.5,869.7 200.7,869.7 194.3,843.1 "/>
<linearGradient id="SVGID_8_" gradientUnits="userSpaceOnUse" x1="161.0282" y1="921.3587" x2="192.3612" y2="944.0257">
	<stop  offset="0" style="stop-color:#72B257"/>
	<stop  offset="1" style="stop-color:#90D676"/>
</linearGradient>
<polygon class="st19" points="141,925.2 188.1,956.1 213.6,941.1 165.6,915.6 "/>
<linearGradient id="SVGID_9_" gradientUnits="userSpaceOnUse" x1="88.0165" y1="925.511" x2="125.2734" y2="952.4635">
	<stop  offset="0" style="stop-color:#72B257"/>
	<stop  offset="1" style="stop-color:#90D676"/>
</linearGradient>
<polygon class="st20" points="63.8,930.6 115.2,966.5 151,948.4 103,922.9 "/>
<polygon class="st16" points="178.2,896.2 159.6,819.6 141,896.2 148.1,896.2 141,925.2 178.2,925.2 171.2,896.2 "/>
</svg>
